<?xml version="1.0" standalone="no"?>
<!DOCTYPE svg PUBLIC "-//W3C//DTD SVG 20010904//EN"
 "http://www.w3.org/TR/2001/REC-SVG-20010904/DTD/svg10.dtd">
<svg version="1.0" xmlns="http://www.w3.org/2000/svg"
 width="160.000000pt" height="160.000000pt" viewBox="0 0 160.000000 160.000000"
 preserveAspectRatio="xMidYMid meet">
<metadata>
Created by potrace 1.11, written by Peter Selinger 2001-2013
</metadata>
<g transform="translate(0.000000,160.000000) scale(0.100000,-0.100000)"
fill="#000000" stroke="none">
<path d="M0 800 l0 -800 800 0 800 0 0 800 0 800 -800 0 -800 0 0 -800z m985
715 c33 -8 102 -36 154 -61 167 -82 303 -241 367 -429 36 -107 44 -267 19
-382 -45 -209 -189 -400 -375 -497 -127 -67 -188 -81 -350 -81 -137 0 -150 2
-233 31 -123 45 -189 87 -288 184 -72 71 -93 101 -132 180 -65 132 -81 200
-81 340 1 131 17 207 69 316 104 217 317 376 554 414 74 12 221 4 296 -15z"/>
<path d="M712 1490 c-438 -60 -711 -505 -567 -923 35 -102 81 -173 171 -263
142 -143 317 -211 519 -201 183 9 332 75 459 203 128 127 194 276 203 459 6
130 -13 222 -71 340 -132 267 -424 424 -714 385z m233 -85 c155 -40 289 -133
374 -260 168 -251 136 -572 -78 -786 -214 -214 -535 -246 -786 -78 -165 111
-261 281 -272 484 -11 189 48 339 186 475 86 85 166 132 273 160 90 23 222 25
303 5z"/>
<path d="M674 1365 c-208 -45 -395 -234 -440 -444 -41 -195 18 -394 160 -535
92 -92 250 -166 353 -166 l33 0 0 580 0 580 -22 -1 c-13 0 -50 -7 -84 -14z
m-93 -127 c53 -15 113 -69 139 -124 20 -40 22 -57 18 -134 -4 -71 -11 -101
-35 -152 -41 -86 -89 -148 -113 -148 -29 0 -25 13 25 81 76 103 105 240 69
329 -9 22 -18 40 -21 40 -3 0 -16 -9 -30 -20 -20 -16 -29 -18 -40 -9 -11 10
-9 17 13 40 l26 27 -28 15 c-65 33 -71 31 -79 -13 -8 -48 -51 -102 -94 -120
-18 -7 -31 -21 -33 -33 -6 -40 -33 -25 -36 19 -3 40 -2 42 32 48 50 9 86 56
86 110 0 24 3 46 7 49 10 10 51 8 94 -5z m-26 -233 c0 -39 -4 -50 -17 -53 -11
-2 -18 3 -18 12 0 23 -25 20 -55 -7 -18 -15 -28 -36 -32 -64 -7 -54 20 -101
129 -225 88 -100 117 -153 118 -210 0 -81 -38 -128 -104 -128 -37 0 -48 5 -70
31 -31 37 -34 81 -6 109 36 36 110 16 110 -31 0 -29 -22 -35 -38 -11 -18 28
-39 28 -47 1 -13 -39 45 -75 81 -51 16 10 34 47 34 69 0 52 -26 97 -111 194
-50 57 -102 125 -115 151 -47 93 -23 182 61 219 25 11 45 27 45 35 0 9 7 14
18 12 13 -3 17 -14 17 -53z"/>
<path d="M837 1362 c-10 -10 -17 -34 -17 -52 l0 -34 45 44 c39 38 43 46 28 52
-29 11 -39 9 -56 -10z"/>
<path d="M887 1282 c-55 -55 -67 -73 -67 -100 0 -17 3 -32 8 -32 4 0 49 42
101 94 73 73 89 95 76 100 -35 13 -53 4 -118 -62z"/>
<path d="M942 1197 c-109 -109 -122 -126 -122 -157 0 -35 0 -34 140 105 77 77
140 143 140 147 0 4 -8 12 -18 17 -16 8 -38 -10 -140 -112z"/>
<path d="M982 1107 c-143 -143 -162 -166 -162 -195 0 -17 3 -32 8 -32 4 0 86
79 182 175 l175 175 -20 20 -20 20 -163 -163z"/>
<path d="M1025 1010 c-187 -188 -189 -190 -155 -190 32 0 50 15 209 174 151
151 173 177 162 190 -8 9 -16 16 -20 16 -3 0 -92 -85 -196 -190z"/>
<path d="M1120 975 c-154 -154 -155 -155 -120 -155 32 0 48 13 168 133 72 73
132 137 132 143 0 7 -6 16 -13 22 -10 9 -49 -24 -167 -143z"/>
<path d="M1210 935 l-115 -115 40 0 c37 0 47 7 129 89 86 86 88 89 74 115
l-13 26 -115 -115z"/>
<path d="M1300 885 l-64 -65 35 0 c49 0 108 61 100 103 l-6 28 -65 -66z"/>
<path d="M827 773 c-4 -3 -7 -32 -7 -64 0 -49 3 -59 20 -64 11 -3 32 -22 46
-40 40 -53 58 -54 114 -1 66 62 94 62 159 1 26 -25 53 -45 60 -45 7 0 32 20
58 45 27 27 54 45 68 45 24 0 35 29 35 96 l0 34 -273 0 c-151 0 -277 -3 -280
-7z"/>
<path d="M1018 565 c-26 -25 -56 -45 -68 -45 -31 0 -75 25 -94 54 -26 41 -36
31 -36 -39 0 -40 4 -65 11 -65 6 0 30 -20 55 -45 24 -25 50 -45 58 -45 8 0 35
20 59 45 61 61 91 61 156 0 l49 -46 41 47 c42 47 109 170 99 180 -3 3 -26 -15
-51 -40 -61 -62 -91 -62 -156 -1 -26 25 -54 45 -62 45 -8 0 -35 -21 -61 -45z"/>
<path d="M1035 398 c-60 -71 -111 -77 -165 -18 -20 22 -40 40 -43 40 -4 0 -7
-45 -7 -100 l0 -100 38 0 c76 0 223 55 292 109 l25 20 -40 40 c-21 23 -47 41
-56 41 -10 0 -29 -15 -44 -32z"/>
</g>
</svg>
